<svg xmlns="http://www.w3.org/2000/svg" width="95.963" height="92.326" viewBox="0 0 95.963 92.326"><g transform="translate(-119.942 286)"><path d="M121.6-285.208c-1.54,1.716-2.244,6.117-1.056,7.041a67.483,67.483,0,0,0,7.789,2.464,55.1,55.1,0,0,1,7.745,2.6c.308.308,3.037,10.21,6.117,22.092,3.081,11.838,5.985,22.928,6.425,24.644l.836,3.081-.968.792a20.587,20.587,0,0,0-5.677,6.557c-1.408,2.6-1.5,3.037-1.452,6.733,0,3.3.176,4.357,1.144,6.469a15.718,15.718,0,0,0,16.591,8.846,13.688,13.688,0,0,0,8.229-4.313,17.133,17.133,0,0,0,4.8-9.022l.308-2.024,4.885-1.232c11.486-2.9,25.481-6.6,29.793-7.833,7.481-2.156,8.8-3.213,8.8-7.173a4.249,4.249,0,0,0-1.364-3.477,7.058,7.058,0,0,0-2.817-1.98c-1.716-.44-4.665.176-28.825,6.381l-15.183,3.873-3.345-1.848-3.389-1.892-1.76-6.909c-5.853-23.1-11.618-44.932-12.19-46.164a5.134,5.134,0,0,0-2.288-2.244c-1.628-.836-20.552-6.249-21.784-6.249A2.348,2.348,0,0,0,121.6-285.208Zm39.079,65.7a10.969,10.969,0,0,1,3.653,18.307c-4.445,4.269-11.794,4.181-15.843-.132-4.181-4.489-3.873-12.454.572-16.195A10.741,10.741,0,0,1,160.675-219.5Z" transform="translate(0)" fill="#213c89"/><path d="M189.374-132.079c-2.949.616-5.985,3.829-6.689,6.953a8.818,8.818,0,0,0,8.934,11.046c5.677,0,9.506-4.225,9.022-9.99A9.219,9.219,0,0,0,189.374-132.079Zm4.489,4.093a5.906,5.906,0,0,1,2.288,7.965c-1.584,2.332-5.853,2.993-7.833,1.188-2.993-2.684-2.64-6.953.66-8.934A4.467,4.467,0,0,1,193.863-127.986Z" transform="translate(-34.992 -86.061)" fill="#213c89"/><path d="M236.869-273.137c-2.684.7-10.958,2.861-18.483,4.753-7.481,1.936-15.007,3.961-16.723,4.533-3.081,1.012-3.081,1.012-2.993,2.552.088,1.672,3.961,17.163,4.533,18.043.264.44,1.232.44,4.709-.132,11.486-1.892,26.933-2.068,37.451-.484,2.729.4,5.1.616,5.237.44.308-.264-3.565-16.327-6.073-25.261-.836-3.037-1.672-5.1-2.112-5.325C241.974-274.281,239.993-273.973,236.869-273.137ZM233-266.228c1.54,1.1,6.953,7.481,6.645,7.833-.836.792-22.8.616-22.8-.22,0-.616,5.5-6.777,7-7.789,1.408-.968,1.98-1.1,4.665-.968C230.884-267.284,231.94-266.976,233-266.228Zm9.154,12.806c1.672.4,4.313,2.772,5.589,5.061.4.792.308.792-1.276.572-7.657-1.232-27.373-1.364-34.59-.264a11.3,11.3,0,0,1-3.213.264c-.308-.308,2.508-3.829,3.785-4.8.748-.528,2.42-.924,5.061-1.188C222.258-254.3,239.641-254.037,242.15-253.421Z" transform="translate(-44.068 -6.658)" fill="#213c89"/><path d="M222.367-195.319c-5.413.66-9.682,1.364-9.9,1.716a6.511,6.511,0,0,0,.308,2.156c.44,1.8.572,1.892,1.76,1.628,9.154-1.848,28.781-1.98,40.135-.308a50.149,50.149,0,0,0,6.337.748c.44-.484-.484-3.829-1.188-4.181a33.407,33.407,0,0,0-5.325-1.144C249.08-195.583,227.648-195.979,222.367-195.319Z" transform="translate(-51.79 -50.589)" fill="#213c89"/><path d="M226.47-173.46c-1.936.176-4.665.44-6.117.616l-2.552.352.264,1.672a39.227,39.227,0,0,0,1.276,4.929c1.232,4,1.276,4,9.154,1.936,3.257-.88,8.978-2.376,12.718-3.345,18.527-4.841,19.143-5.017,17.559-5.369C253.622-173.724,234.743-174.208,226.47-173.46Z" transform="translate(-54.792 -62.811)" fill="#213c89"/></g></svg>