<svg xmlns="http://www.w3.org/2000/svg" xmlns:xlink="http://www.w3.org/1999/xlink" width="451" height="367" viewBox="0 0 451 367">
  <defs>
    <clipPath id="clip-logo-varejo_modificada_.svg">
      <rect width="451" height="367"/>
    </clipPath>
  </defs>
  <g id="logo-varejo_modificada_.svg" data-name="logo-varejo(modificada).svg" clip-path="url(#clip-logo-varejo_modificada_.svg)">
    <rect width="451" height="367" fill="#a01d4b"/>
    <g id="farid-supermercados" transform="translate(5 361.893)">
      <path id="Caminho_1" data-name="Caminho 1" d="M69.5-361.1c-3.4,1.5-4.4,3.5-5.9,11.7-.8,4.3-4.4,23.4-8.1,42.4C37.2-212.3,29.5-171.1,18-107.5,12.5-76.7,6.2-41.5,3.9-29.2-1.7,1.5-2.3.8,26.5-1,50.7-2.5,67.3-4.2,107-9.5c82.6-11,103.3-12.9,144-12.9,34.2-.1,43.6.6,67.5,5,14.1,2.5,20.1,4.4,39.8,12.3,7,2.8,13.8,5.1,15.2,5.1a9.013,9.013,0,0,0,5-2.3c2.3-1.9,3-4.1,5.5-17.2,1.6-8.3,5.2-27.2,8-42,11-57.5,16.3-85.8,20-106,2.2-11.6,6.6-35.6,10-53.5,3.3-17.9,8.5-46.2,11.5-63,3.1-16.8,7.1-39.1,9-49.5,2-10.5,3.5-20,3.5-21.2s-1.4-3.3-3.2-4.8c-3.2-2.7-3.2-2.7-15.2-2-21.3,1.1-52.1,4.5-88.1,9.5-91.1,12.9-124.8,15.7-164.2,13.9-31.5-1.4-52.4-5.7-80.8-16.6C76.6-361.5,72.8-362.5,69.5-361.1Zm163.6,89.4c3.2,1.9,18.6,19.4,17.7,20.2-.2.1-6.4-.1-13.8-.5s-19.8-.4-27.5,0-14.1.6-14.3.5c-.6-.5,13.7-17.5,16.4-19.4A19.37,19.37,0,0,1,233.1-271.7Zm14.7,28.9,11.4,1.1,5.4,6.5c3,3.6,5.3,6.6,5.1,6.8-.1.1-4.5-.5-9.7-1.3-13-2.1-59.6-2.1-73.5-.1-5.5.8-10.1,1.5-10.2,1.4a82.253,82.253,0,0,1,5.1-6.6l5.3-6.5,9.4-1.1C208.9-244.1,233.9-244.3,247.8-242.8Zm16.1,23.7c7.3,1.1,14.1,2.3,15,2.6,1.5.6,11.4,12.5,10.8,13.1-.1.2-5.5-.8-11.9-2.1-18.4-3.7-35-4.8-62.6-4.2-24.1.5-37.6,1.9-51.8,5.2-3.7.8-6.8,1.4-7,1.2-.6-.5,9.4-12.4,10.9-13,2.3-.9,20.5-3.7,30.2-4.7C212.1-222.4,248.5-221.4,263.9-219.1Zm-4.6,21.7a191.959,191.959,0,0,1,34.7,6.5c8.1,2.1,8.2,2.3,14,9.3,3.2,3.9,5.8,7.1,5.7,7.2a58.626,58.626,0,0,1-7.4-2.1c-23-7.6-47.8-10.8-82.3-10.9-34.4,0-58.8,3-82,10.4-5.2,1.6-9.6,3-9.8,3s2.3-3.2,5.5-7c5.4-6.7,6.1-7.2,13.3-9.4C178.1-199,220.9-201.7,259.3-197.4Zm6.7,23.8c21.6,2.8,47,9.9,57.5,16,4.9,2.9,5.9,5.8,4.4,12.6a18.955,18.955,0,0,1-18.3,15,154.446,154.446,0,0,1-16.8-2c-11.7-1.9-40.9-5-47-5H243v6.8c0,11.7,4.6,25.3,11,32.6,4.1,4.6,3.9,4.7-8.5,7.7-10.6,2.6-31.3,3.1-41,1-5.4-1.2-14.6-3.9-15.3-4.6a21.8,21.8,0,0,1,2.9-3.6c6.5-6.9,11.8-22.6,11.9-34.8v-5.4l-12.4.7c-13.6.7-32.5,3-42.9,5.2-10.9,2.3-16.5,1.9-21.9-1.5-5.7-3.6-8.8-9.6-8.8-17v-5.2l9.3-4.4c15.4-7.3,39.6-13,65.2-15.4C207.2-176.3,251.2-175.5,266-173.6Z" fill="#fff"/>
    </g>
  </g>
</svg>
